# xmcd
#
# Track frame offsets:
#	150
#	17166
#	34436
#	49436
#	60865
#	75385
#	90587
#	107127
#	124242
#	137003
#	150576
#	166159
#	182917
#	207439
#	231870
#	259217
#
# Disc length: 3673 seconds
#
# Revision: 1
# Processed by: cddbd v1.5.2PL0 Copyright (c) Steve Scherf et al.
# Submitted via: audiograbber 1.83.01
#
DISCID=d70e5710
DTITLE=Bobby Womack - The Preacher [CD 02)
DYEAR=2004
DGENRE=Soul
TTITLE0=Harrie Hippie
TTITLE1=Across 110th Street
TTITLE2=All Along The Watchtower
TTITLE3=Lookin' For A Love
TTITLE4=I Don't Know
TTITLE5=I Don't Wanna Be Hurt By A Love Again
TTITLE6=If You Want My Love
TTITLE7=Check It Out
TTITLE8=It's All Over Now
TTITLE9=Where There's A Will There's A Day
TTITLE10=Daylight
TTITLE11=So Many Sides Of You
TTITLE12=If You Think You're Lonely Now
TTITLE13=Love Has Finally Come At Last
TTITLE14=Tell Me Why
TTITLE15=I Wish I Had Someone To Go Home To
EXTD=
EXTT0=
EXTT1=
EXTT2=
EXTT3=
EXTT4=
EXTT5=
EXTT6=
EXTT7=
EXTT8=
EXTT9=
EXTT10=
EXTT11=
EXTT12=
EXTT13=
EXTT14=
EXTT15=
PLAYORDER=
